<svg width="26" height="31" viewBox="0 0 26 31" fill="none" xmlns="http://www.w3.org/2000/svg">
<path d="M16.7438 23.7864C17.2706 23.7864 17.7159 23.6076 18.0796 23.25C18.4433 22.8924 18.6252 22.4547 18.6252 21.9368C18.6252 21.4189 18.4433 20.9811 18.0796 20.6235C17.7159 20.2659 17.2706 20.0871 16.7438 20.0871C16.2171 20.0871 15.7718 20.2659 15.4081 20.6235C15.0444 20.9811 14.8625 21.4189 14.8625 21.9368C14.8625 22.4547 15.0444 22.8924 15.4081 23.25C15.7718 23.6076 16.2171 23.7864 16.7438 23.7864ZM8.35311 22.7876C8.57887 23.0095 8.84226 23.1205 9.14327 23.1205C9.44428 23.1205 9.70767 23.0095 9.93343 22.7876L17.6093 15.241C17.835 15.0191 17.9479 14.7601 17.9479 14.4642C17.9479 14.1683 17.835 13.9093 17.6093 13.6874C17.3835 13.4654 17.1138 13.3544 16.8003 13.3544C16.4867 13.3544 16.2171 13.4654 15.9913 13.6874L8.35311 21.2339C8.12735 21.4558 8.01447 21.7148 8.01447 22.0107C8.01447 22.3067 8.12735 22.5656 8.35311 22.7876ZM9.21852 16.3878C9.7453 16.3878 10.1905 16.209 10.5543 15.8514C10.918 15.4938 11.0999 15.0561 11.0999 14.5382C11.0999 14.0203 10.918 13.5825 10.5543 13.2249C10.1905 12.8673 9.7453 12.6885 9.21852 12.6885C8.69175 12.6885 8.2465 12.8673 7.88278 13.2249C7.51905 13.5825 7.33719 14.0203 7.33719 14.5382C7.33719 15.0561 7.51905 15.4938 7.88278 15.8514C8.2465 16.209 8.69175 16.3878 9.21852 16.3878ZM12.9812 31C9.54462 31 6.52195 29.8224 3.91317 27.4672C1.30439 25.112 0 21.9368 0 17.9415C0 15.5 0.940666 12.8427 2.822 9.96957C4.70333 7.09646 7.58804 3.95823 11.4761 0.554893C11.6768 0.382259 11.9088 0.246619 12.1722 0.147971C12.4356 0.0493238 12.7053 0 12.9812 0C13.2571 0 13.5268 0.0493238 13.7902 0.147971C14.0535 0.246619 14.2856 0.382259 14.4863 0.554893C18.3743 3.95823 21.2653 7.09646 23.1592 9.96957C25.0531 12.8427 26 15.5 26 17.9415C26 21.9368 24.6893 25.112 22.068 27.4672C19.4467 29.8224 16.4178 31 12.9812 31Z" fill="#E6E6E6"/>
</svg>
