<svg width="429" height="402" viewBox="0 0 429 402" fill="none" xmlns="http://www.w3.org/2000/svg">
<path d="M427.303 49.876L389.695 13.028C389.693 13.0253 389.69 13.0227 389.687 13.02C382.631 6.11371 371.59 5.39083 363.693 11.3176C363.689 11.3205 363.685 11.3234 363.681 11.3264L186.608 144.424L125.709 54.0667C125.705 54.0604 125.701 54.0541 125.697 54.0478C116.239 40.047 94.7508 43.3582 89.9492 59.5608C89.9481 59.5646 89.9469 59.5683 89.9458 59.5721L1 360.305H101.985L141.587 308.979L186.608 250.628L242.553 298.582C242.556 298.586 242.56 298.589 242.564 298.592L362.035 401L377.419 250.628L345.361 194.851C345.355 194.841 345.349 194.83 345.343 194.82L316.377 144.424L360.642 106.695L405.211 68.7061L427.303 49.876Z" fill="#D9D9D9"/>
<path d="M427.303 49.876L389.695 13.028C389.693 13.0253 389.69 13.0227 389.687 13.02M427.303 49.876L405.211 68.7061M427.303 49.876L389.687 13.02M186.608 144.424L363.681 11.3264C363.685 11.3234 363.689 11.3205 363.693 11.3176M186.608 144.424L125.709 54.0667C125.705 54.0604 125.701 54.0541 125.697 54.0478M186.608 144.424L125.697 54.0478M186.608 144.424L363.693 11.3176M1 360.305L89.9458 59.5721C89.9469 59.5683 89.9481 59.5646 89.9492 59.5608M1 360.305H101.985M1 360.305L89.9492 59.5608M101.985 360.305L141.587 308.979M101.985 360.305L186.608 250.628M141.587 308.979L186.608 250.628M141.587 308.979C166.064 277.254 212.126 272.513 242.553 298.582M362.035 401L242.564 298.592C242.56 298.589 242.556 298.586 242.553 298.582M362.035 401L377.419 250.628M362.035 401L242.553 298.582M377.419 250.628L345.361 194.851C345.355 194.841 345.349 194.83 345.343 194.82M377.419 250.628L345.343 194.82M360.642 106.695L405.211 68.7061M360.642 106.695L316.377 144.424M360.642 106.695C334.992 128.558 328.564 165.594 345.343 194.82M405.211 68.7061L316.377 144.424M186.608 250.628L242.553 298.582M316.377 144.424L345.343 194.82M389.687 13.02C382.631 6.11371 371.59 5.39083 363.693 11.3176M389.687 13.02L377.419 1L363.693 11.3176M125.697 54.0478C116.239 40.047 94.7508 43.3582 89.9492 59.5608M125.697 54.0478L101.985 18.866L89.9492 59.5608" stroke="black"/>
</svg>
