<svg width="22" height="40" viewBox="0 0 22 40" fill="none" xmlns="http://www.w3.org/2000/svg">
<path d="M10.9735 40C7.93414 40 5.34538 38.9537 3.20723 36.8612C1.06908 34.7687 0 32.2352 0 29.2607C0 27.4968 0.415261 25.8279 1.24578 24.2542C2.07631 22.6805 3.25141 21.3748 4.77108 20.3372V6.12192C4.77108 4.46174 5.38072 3.02637 6.6 1.81582C7.81928 0.605275 9.27711 0 10.9735 0C12.6699 0 14.1365 0.605275 15.3735 1.81582C16.6104 3.02637 17.2289 4.46174 17.2289 6.12192V20.3372C18.7133 21.3402 19.8795 22.6373 20.7277 24.2283C21.5759 25.8193 22 27.4968 22 29.2607C22 32.2352 20.9221 34.7687 18.7663 36.8612C16.6104 38.9537 14.0128 40 10.9735 40ZM9.75422 15.0454H12.1928V6.12192C12.1928 5.77605 12.0779 5.4907 11.8482 5.26589C11.6185 5.04107 11.3269 4.92866 10.9735 4.92866C10.6201 4.92866 10.3285 5.04107 10.0988 5.26589C9.86907 5.4907 9.75422 5.77605 9.75422 6.12192V15.0454Z" fill="#E6E6E6"/>
</svg>
